<?xml version="1.0" encoding="UTF-8" standalone="no"?>
<svg
   xmlns:dc="http://purl.org/dc/elements/1.1/"
   xmlns:cc="http://creativecommons.org/ns#"
   xmlns:rdf="http://www.w3.org/1999/02/22-rdf-syntax-ns#"
   xmlns:svg="http://www.w3.org/2000/svg"
   xmlns="http://www.w3.org/2000/svg"
   xmlns:sodipodi="http://sodipodi.sourceforge.net/DTD/sodipodi-0.dtd"
   xmlns:inkscape="http://www.inkscape.org/namespaces/inkscape"
   width="205.80664"
   height="30.839844"
   viewBox="0 0 205.80664 30.839844"
   version="1.1"
   id="svg3782"
   sodipodi:docname="logo labcerouno curvas.svg"
   inkscape:version="0.92.2 5c3e80d, 2017-08-06">
  <metadata
     id="metadata3786">
    <rdf:RDF>
      <cc:Work
         rdf:about="">
        <dc:format>image/svg+xml</dc:format>
        <dc:type
           rdf:resource="http://purl.org/dc/dcmitype/StillImage" />
        <dc:title>logo</dc:title>
      </cc:Work>
    </rdf:RDF>
  </metadata>
  <sodipodi:namedview
     pagecolor="#ffffff"
     bordercolor="#666666"
     borderopacity="1"
     objecttolerance="10"
     gridtolerance="10"
     guidetolerance="10"
     inkscape:pageopacity="0"
     inkscape:pageshadow="2"
     inkscape:window-width="1448"
     inkscape:window-height="771"
     id="namedview3784"
     showgrid="false"
     inkscape:zoom="2.56"
     inkscape:cx="98.573536"
     inkscape:cy="38.364629"
     inkscape:window-x="0"
     inkscape:window-y="0"
     inkscape:window-maximized="0"
     inkscape:current-layer="logo"
     fit-margin-top="0"
     fit-margin-left="0"
     fit-margin-right="0"
     fit-margin-bottom="0" />
  <!-- Generator: Sketch 51.3 (57544) - http://www.bohemiancoding.com/sketch -->
  <title
     id="title3772">logo</title>
  <desc
     id="desc3774">Created with Sketch.</desc>
  <defs
     id="defs3776" />
  <g
     id="Page-1"
     style="fill:none;fill-rule:evenodd;stroke:none;stroke-width:1"
     transform="translate(12.251953,-3.7850813)">
    <g
       id="logo">
      <g
         aria-label="lab"
         transform="translate(-17.578125,32.832031)"
         style="font-style:normal;font-weight:normal;font-size:40px;line-height:1.25;font-family:sans-serif;letter-spacing:0px;word-spacing:0px;fill:#45454a;fill-opacity:1;stroke:none"
         id="flowRoot3788">
        <path
           d="m 8.0410156,-23.851637 q 0,-0.625 0,-1.210938 0.019531,-0.585937 0.1171875,-1.386718 l -2.8320312,0.15625 v -1.679688 q 1.3085937,0 2.1679687,-0.07813 0.8789063,-0.09766 1.4257813,-0.253906 0.546875,-0.15625 0.859375,-0.332031 0.3125001,-0.195313 0.5468751,-0.410157 h 1.152344 l 0.03906,25.9570316 q 0,0.8007812 -0.03906,1.4257812 -0.03906,0.6054688 -0.15625,1.28906253 l 2.519531,-0.1171875 V 1.1483628 H 5.6777344 v -1.19140622 q 0.9179687,0 1.3867187,-0.3515625 0.4882813,-0.37109375 0.703125,-1.01562498 0.2148438,-0.6445313 0.234375,-1.5429688 0.039063,-0.8984375 0.039063,-1.9726562 z"
           style="font-style:normal;font-variant:normal;font-weight:normal;font-stretch:normal;font-family:Lora;-inkscape-font-specification:Lora;fill:#45454a;fill-opacity:1"
           id="path4674" />
        <path
           d="m 28.744141,-8.6367934 q -0.917969,0.039063 -1.914063,0.1757812 -0.976562,0.1171875 -1.933594,0.390625 -0.9375,0.2539063 -1.777343,0.6640625 -0.839844,0.4101563 -1.464844,0.9765625 -0.625,0.5664063 -0.976563,1.3085938 -0.351562,0.7421875 -0.3125,1.6796875 0.01953,0.7421875 0.273438,1.3085937 0.273437,0.546875 0.683594,0.9179688 0.429687,0.35156248 0.976562,0.54687498 0.546875,0.17578125 1.171875,0.17578125 0.800781,0 1.503906,-0.15625 0.703125,-0.15625 1.328125,-0.44921873 0.644532,-0.3125 1.230469,-0.7421875 0.605469,-0.4296875 1.210938,-0.9960938 z M 17.767578,-14.691481 q 0,-0.996094 0.585938,-1.875 0.585937,-0.878906 1.640625,-1.523437 1.054687,-0.664063 2.5,-1.035157 1.464843,-0.371093 3.183593,-0.371093 3.359375,0 4.941407,1.777343 1.601562,1.777344 1.582031,5.644532 l -0.03906,8.9843746 q 0,0.625 -0.03906,1.2695312 -0.01953,0.625 -0.117188,1.44531253 l 2.832032,-0.15625 V 1.1483628 h -5.722657 q -0.117187,-0.68359372 -0.175781,-1.19140622 -0.05859,-0.5078125 -0.09766,-1.07421878 -1.347656,1.34765628 -2.949219,2.1289063 -1.582031,0.78125 -3.359375,0.78125 -1.503906,0 -2.636719,-0.3710938 -1.113281,-0.3515625 -1.855468,-0.99609372 -0.742188,-0.64453125 -1.113282,-1.50390628 -0.371093,-0.8789062 -0.371093,-1.875 0,-1.2304687 0.527343,-2.2460937 0.546875,-1.015625 1.445313,-1.796875 0.917969,-0.8007813 2.128906,-1.3671875 1.210938,-0.5859375 2.558594,-0.9570313 1.367187,-0.3710937 2.773437,-0.5273437 1.425782,-0.1757811 2.773438,-0.1562501 v -2.5 q 0,-1.035156 -0.117188,-2.011719 -0.117187,-0.976562 -0.527343,-1.777343 -0.390625,-0.800782 -1.25,-1.269532 -0.839844,-0.46875 -1.953125,-0.46875 -0.644532,0 -1.230469,0.117188 -0.585938,0.09766 -1.152344,0.351562 -0.566406,0.253907 -1.035156,0.664063 -0.449219,0.410156 -0.742188,0.976562 0.292969,0.332032 0.390625,0.742188 0.117188,0.390625 0.117188,0.761719 0,0.234375 -0.09766,0.546875 -0.09766,0.292968 -0.3125,0.566406 -0.195313,0.253906 -0.527344,0.429687 -0.3125,0.15625 -0.859375,0.15625 -0.78125,0 -1.25,-0.566406 -0.449219,-0.585937 -0.449219,-1.40625 z"
           style="font-style:normal;font-variant:normal;font-weight:normal;font-stretch:normal;font-family:Lora;-inkscape-font-specification:Lora;fill:#45454a;fill-opacity:1"
           id="path4676" />
        <path
           d="m 38.841797,-23.851637 q 0,-0.625 0,-1.210938 0.01953,-0.585937 0.117187,-1.386718 l -2.832031,0.15625 v -1.679688 q 1.308594,0 2.167969,-0.07813 0.878906,-0.09766 1.425781,-0.253906 0.546875,-0.15625 0.859375,-0.332031 0.3125,-0.195313 0.546875,-0.410157 h 1.152344 v 11.933594 q 1.113281,-1.113281 2.636719,-1.738281 1.542968,-0.644531 3.4375,-0.644531 1.914062,0 3.554687,0.722656 1.660156,0.703125 2.871094,2.03125 1.230469,1.308594 1.914062,3.203125 0.703125,1.875 0.703125,4.2187498 0,2.5585938 -0.878906,4.609375 -0.859375,2.0507813 -2.304687,3.4960938 -1.425782,1.44531248 -3.320313,2.2265625 -1.875,0.78125 -3.886719,0.78125 -0.683593,0 -1.445312,-0.1171875 -0.761719,-0.097656 -1.542969,-0.390625 -0.78125,-0.2734375 -1.523437,-0.74218752 -0.742188,-0.46875 -1.367188,-1.19140625 L 40.169922,1.1483628 h -1.40625 z m 8.28125,6.328125 q -1.328125,0 -2.617188,0.625 -1.289062,0.605469 -2.226562,1.640625 v 10.1171873 q 0,1.6015625 0.390625,2.6367188 0.390625,1.015625 1.054687,1.62109373 0.664063,0.5859375 1.503907,0.8203125 0.859375,0.21484375 1.777343,0.21484375 1.445313,0 2.597657,-0.60546875 1.171875,-0.62500003 1.972656,-1.73828123 0.820312,-1.1328125 1.25,-2.6953125 0.449219,-1.5625 0.449219,-3.4570313 0,-2.0117183 -0.390625,-3.6914063 -0.371094,-1.699219 -1.132813,-2.910156 -0.761719,-1.210938 -1.914062,-1.894531 -1.152344,-0.683594 -2.714844,-0.683594 z"
           style="font-style:normal;font-variant:normal;font-weight:normal;font-stretch:normal;font-family:Lora;-inkscape-font-specification:Lora;fill:#45454a;fill-opacity:1"
           id="path4678" />
      </g>
      <flowRoot
         xml:space="preserve"
         id="flowRoot4624"
         style="font-style:normal;font-weight:normal;font-size:40px;line-height:1.25;font-family:sans-serif;letter-spacing:0px;word-spacing:0px;fill:#000000;fill-opacity:1;stroke:none"><flowRegion
           id="flowRegion4626"><rect
             id="rect4628"
             width="127.4447"
             height="67.846771"
             x="57.948158"
             y="-30.033411" /></flowRegion><flowPara
           id="flowPara4630">cerouno</flowPara></flowRoot>      <g
         aria-label="cerouno"
         transform="translate(-11.328125,39.787109)"
         style="font-style:normal;font-weight:normal;font-size:40px;line-height:1.25;font-family:sans-serif;letter-spacing:0px;word-spacing:0px;fill:#1c3ed3;fill-opacity:1;stroke:none"
         id="flowRoot4632">
        <path
           d="m 67.929687,-22.818434 q -0.273437,-0.703125 -0.800781,-1.113281 -0.527344,-0.429688 -1.152344,-0.664063 -0.605468,-0.234375 -1.230468,-0.292969 -0.605469,-0.07813 -1.015625,-0.07813 -1.367188,0 -2.558594,0.566407 -1.171875,0.546875 -2.03125,1.621093 -0.859375,1.074219 -1.367188,2.675782 -0.488281,1.601562 -0.488281,3.671875 0,1.992187 0.488281,3.691406 0.507813,1.679687 1.40625,2.9101562 0.898438,1.2109375 2.167969,1.8945313 1.269531,0.6835937 2.8125,0.6835937 0.9375,0 1.855469,-0.2539062 0.917969,-0.2734375 1.738281,-0.7421875 0.820313,-0.46875 1.503906,-1.09375 0.703125,-0.625 1.191407,-1.3476565 l 1.035156,0.8007815 q -0.800781,1.25 -1.835938,2.1484375 -1.015625,0.8789062 -2.148437,1.4648437 -1.113281,0.5664063 -2.265625,0.8398438 -1.132813,0.2734375 -2.148438,0.2734375 -2.03125,0 -3.828125,-0.6835938 -1.796875,-0.703125 -3.144531,-2.0117187 -1.347656,-1.328125 -2.128906,-3.2421875 -0.78125,-1.914063 -0.78125,-4.355469 0,-1.386719 0.332031,-2.734375 0.351563,-1.347656 0.996094,-2.558594 0.644531,-1.230468 1.5625,-2.265625 0.917969,-1.054687 2.070312,-1.816406 1.171875,-0.761719 2.539063,-1.191406 1.386719,-0.429688 2.929687,-0.429688 1.660157,0 3.027344,0.410157 1.367188,0.410156 2.34375,1.09375 0.976563,0.683593 1.503906,1.582031 0.527344,0.878906 0.527344,1.855469 0,0.859375 -0.488281,1.484375 -0.46875,0.605468 -1.367188,0.625 -0.527343,0.01953 -0.878906,-0.15625 -0.351562,-0.195313 -0.566406,-0.46875 -0.214844,-0.273438 -0.3125,-0.585938 -0.09766,-0.332031 -0.09766,-0.585937 0,-0.390625 0.117187,-0.820313 0.136719,-0.429687 0.488281,-0.800781 z"
           style="font-style:normal;font-variant:normal;font-weight:normal;font-stretch:normal;font-family:Lora;-inkscape-font-specification:Lora"
           id="path4659" />
        <path
           d="m 84.53125,-24.888747 q -2.34375,0 -3.867188,1.386719 -1.523437,1.367188 -2.011718,4.453125 h 10.195312 q 0,-1.054687 -0.234375,-2.089844 -0.234375,-1.054687 -0.761719,-1.875 -0.507812,-0.839843 -1.328125,-1.347656 -0.820312,-0.527344 -1.992187,-0.527344 z m 8.085937,7.285157 -14.082031,0.234375 q -0.01953,2.304687 0.351563,4.179687 0.371093,1.875 1.171875,3.2031252 0.800781,1.328125 2.050781,2.0507813 1.269531,0.7226562 3.027344,0.7226562 0.9375,0 1.914062,-0.2539062 0.976563,-0.2539063 1.875,-0.6835938 0.917969,-0.4492187 1.679688,-1.0546875 0.761718,-0.625 1.269531,-1.3281252 l 0.976562,0.8007815 q -0.820312,1.25 -1.914062,2.1289062 -1.074219,0.859375 -2.246094,1.40625 -1.152344,0.546875 -2.324219,0.78125 -1.171875,0.2539063 -2.1875,0.2539063 -2.070312,0 -3.867187,-0.7421875 -1.777344,-0.7421875 -3.085938,-2.1289063 -1.308593,-1.3867187 -2.070312,-3.3398442 -0.742188,-1.953125 -0.742188,-4.394531 0,-2.109375 0.722657,-4.023437 0.722656,-1.933594 2.050781,-3.417969 1.328125,-1.484375 3.183594,-2.363281 1.855468,-0.878907 4.121093,-0.878907 1.660157,0 3.125,0.546875 1.484375,0.546875 2.597657,1.640625 1.113281,1.09375 1.757812,2.773438 0.644531,1.660156 0.644531,3.886719 z"
           style="font-style:normal;font-variant:normal;font-weight:normal;font-stretch:normal;font-family:Lora;-inkscape-font-specification:Lora"
           id="path4661" />
        <path
           d="m 107.69531,-24.263747 q -0.76172,-0.01953 -1.54297,0.292969 -0.78125,0.292969 -1.54296,0.878906 -0.74219,0.585938 -1.40625,1.40625 -0.66407,0.820313 -1.19141,1.816407 l 0.0391,9.824218 q 0,0.8007817 -0.0195,1.4257817 -0.0195,0.6054688 -0.13672,1.2890625 l 2.51953,-0.1171875 v 1.640625 h -8.203123 v -1.1914062 q 0.917969,0 1.386719,-0.3515625 0.488281,-0.3710938 0.703125,-1.015625 0.214844,-0.6445313 0.234375,-1.5429688 0.03906,-0.8984372 0.03906,-1.9726562 v -9.140625 q 0,-0.625 0.01953,-1.25 0.01953,-0.644531 0.136719,-1.328125 l -2.832032,0.117187 v -1.640625 h 1.230469 q 0.859375,0 1.425781,-0.07813 0.566407,-0.09766 0.9375,-0.253906 0.390625,-0.15625 0.644533,-0.332031 0.25391,-0.195313 0.48828,-0.410156 h 1.15234 q 0.0586,0.625 0.0977,1.5625 0.0586,0.917968 0.0977,2.382812 0.44922,-0.742187 1.15234,-1.484375 0.70313,-0.761719 1.58203,-1.347656 0.87891,-0.605469 1.89453,-0.976563 1.01563,-0.390625 2.08985,-0.390625 0.54687,0 1.05468,0.15625 0.52735,0.136719 0.89844,0.449219 0.39063,0.3125 0.625,0.78125 0.23438,0.46875 0.23438,1.132813 0,0.273437 -0.11719,0.605468 -0.0977,0.332032 -0.35156,0.625 -0.23438,0.292969 -0.60547,0.488282 -0.3711,0.195312 -0.91797,0.195312 -0.44922,0 -0.82031,-0.195312 -0.35157,-0.195313 -0.60547,-0.488282 -0.23438,-0.3125 -0.35156,-0.703125 -0.0977,-0.410156 -0.0391,-0.859375 z"
           style="font-style:normal;font-variant:normal;font-weight:normal;font-stretch:normal;font-family:Lora;-inkscape-font-specification:Lora"
           id="path4663" />
        <path
           d="m 123.16406,-24.927809 q -1.58203,0 -2.71484,0.703125 -1.11328,0.703125 -1.83594,1.875 -0.72265,1.171875 -1.07422,2.695312 -0.33203,1.523438 -0.33203,3.164063 0,1.855469 0.3711,3.613281 0.39062,1.757813 1.17187,3.1250002 0.78125,1.3476563 1.95313,2.1679688 1.1914,0.8203125 2.77343,0.8203125 1.58203,0 2.65625,-0.703125 1.09375,-0.7226563 1.75782,-1.8945313 0.68359,-1.1718752 0.97656,-2.6757812 0.29297,-1.503906 0.29297,-3.085938 0,-1.796875 -0.33204,-3.554687 -0.33203,-1.757813 -1.05468,-3.144531 -0.72266,-1.386719 -1.875,-2.246094 -1.13281,-0.859375 -2.73438,-0.859375 z m 0,-1.523438 q 2.10938,0 3.94532,0.78125 1.83593,0.761719 3.18359,2.128907 1.36719,1.347656 2.14844,3.222656 0.80078,1.855469 0.80078,4.023437 0,2.324219 -0.78125,4.355469 -0.76172,2.0312502 -2.12891,3.5351565 -1.34766,1.5039062 -3.20312,2.3828125 -1.83594,0.859375 -3.96485,0.859375 -2.10937,0 -3.94531,-0.7421875 -1.81641,-0.7617188 -3.18359,-2.109375 -1.34766,-1.3476563 -2.12891,-3.2031255 -0.78125,-1.875 -0.78125,-4.101562 0,-2.363281 0.76172,-4.394531 0.78125,-2.050782 2.12891,-3.535157 1.34765,-1.503906 3.18359,-2.34375 1.83594,-0.859375 3.96484,-0.859375 z"
           style="font-style:normal;font-variant:normal;font-weight:normal;font-stretch:normal;font-family:Lora;-inkscape-font-specification:Lora"
           id="path4665" />
        <path
           d="m 151.52344,-20.552809 q 0,-0.976563 0.0391,-1.660156 0.0391,-0.703125 0.15625,-1.386719 l -2.87109,0.117187 v -1.640625 h 1.23046 q 0.85938,0 1.46485,-0.07813 0.60547,-0.09766 1.03515,-0.253906 0.42969,-0.15625 0.70313,-0.332031 0.29297,-0.195313 0.52734,-0.410156 h 1.15235 l -0.0391,15.117187 q 0,0.3125 -0.0195,0.800781 0,0.4687505 -0.0195,0.9960942 -0.0195,0.5078125 -0.0586,1.0351563 -0.0195,0.5078125 -0.0586,0.9179687 l 2.8711,-0.15625 v 1.6796875 h -5.72266 q -0.0977,-0.6835937 -0.17578,-1.25 -0.0586,-0.5859375 -0.0977,-1.1523437 -0.625,0.625 -1.38671,1.1914062 -0.76172,0.546875 -1.6211,0.9570313 -0.83984,0.4101562 -1.73828,0.6445312 -0.89844,0.2539063 -1.77734,0.2539063 -1.64063,0 -2.8711,-0.4492188 -1.23047,-0.4296875 -2.05078,-1.4453125 -0.82031,-1.015625 -1.23047,-2.6757812 -0.41015,-1.6796875 -0.41015,-4.1601565 v -7.109375 q 0,-0.625 0.0195,-1.269531 0.0195,-0.644531 0.13672,-1.328125 l -2.75391,0.117187 v -1.640625 h 1.25 q 0.83984,0 1.44531,-0.07813 0.60547,-0.09766 1.03516,-0.253906 0.42969,-0.15625 0.70312,-0.332031 0.29297,-0.195313 0.52735,-0.410156 h 1.15234 v 12.1875 q 0,1.738281 0.23438,3.027343 0.23437,1.2695317 0.74218,2.1289067 0.52735,0.8398438 1.34766,1.25 0.82031,0.390625 2.01172,0.390625 0.76172,0 1.48437,-0.2539062 0.74219,-0.2539063 1.40625,-0.6835938 0.66407,-0.4296875 1.23047,-0.9765625 0.58594,-0.546875 0.9961,-1.1718752 v -1.660156 z"
           style="font-style:normal;font-variant:normal;font-weight:normal;font-stretch:normal;font-family:Lora;-inkscape-font-specification:Lora"
           id="path4667" />
        <path
           d="m 162.98828,-21.002028 q 0,-0.625 0.0195,-1.269531 0.0195,-0.644531 0.13672,-1.328125 l -2.83203,0.15625 v -1.679688 q 1.30859,0 2.12891,-0.07813 0.82031,-0.09766 1.30859,-0.253906 0.50781,-0.15625 0.78125,-0.332031 0.27344,-0.195313 0.50781,-0.410156 h 1.15235 q 0.0391,0.449218 0.0781,1.035156 0.0586,0.566406 0.0977,1.386719 0.64453,-0.566407 1.40625,-1.054688 0.78125,-0.488281 1.62109,-0.839844 0.83984,-0.371093 1.71875,-0.566406 0.89844,-0.214844 1.75781,-0.214844 3.47657,0 5.07813,2.1875 1.60156,2.167969 1.60156,6.757813 v 7.460937 q 0,0.8007817 -0.0195,1.4257817 -0.0195,0.6054688 -0.13672,1.2890625 l 2.51953,-0.1171875 v 1.640625 H 173.75 v -1.1914062 q 0.91797,0 1.38672,-0.3515625 0.48828,-0.3710938 0.70312,-1.015625 0.21485,-0.6445313 0.23438,-1.5429688 0.0391,-0.8984372 0.0391,-1.9726562 v -5.585938 q -0.0391,-3.457031 -1.13281,-5.195312 -1.09375,-1.757813 -3.47656,-1.757813 -0.72266,0 -1.44532,0.214844 -0.72265,0.214844 -1.38672,0.566406 -0.66406,0.332032 -1.25,0.800782 -0.58593,0.46875 -1.01562,1.015625 0.0195,0.351562 0.0195,0.761718 0,0.390625 0,0.800782 l -0.0391,10.214843 q 0,0.8007817 -0.0195,1.4257817 -0.0195,0.6054688 -0.13672,1.2890625 L 168.75,-7.4473403 v 1.640625 h -8.16406 v -1.1914062 q 0.91797,0 1.38672,-0.3515625 0.48828,-0.3710938 0.68359,-1.015625 0.21484,-0.6445313 0.23437,-1.5429688 0.0391,-0.8984372 0.0586,-1.9726562 z"
           style="font-style:normal;font-variant:normal;font-weight:normal;font-stretch:normal;font-family:Lora;-inkscape-font-specification:Lora"
           id="path4669" />
        <path
           d="m 194.80469,-24.927809 q -1.58203,0 -2.71485,0.703125 -1.11328,0.703125 -1.83593,1.875 -0.72266,1.171875 -1.07422,2.695312 -0.33203,1.523438 -0.33203,3.164063 0,1.855469 0.37109,3.613281 0.39062,1.757813 1.17187,3.1250002 0.78125,1.3476563 1.95313,2.1679688 1.19141,0.8203125 2.77344,0.8203125 1.58203,0 2.65625,-0.703125 1.09375,-0.7226563 1.75781,-1.8945313 0.68359,-1.1718752 0.97656,-2.6757812 0.29297,-1.503906 0.29297,-3.085938 0,-1.796875 -0.33203,-3.554687 -0.33203,-1.757813 -1.05469,-3.144531 -0.72265,-1.386719 -1.875,-2.246094 -1.13281,-0.859375 -2.73437,-0.859375 z m 0,-1.523438 q 2.10937,0 3.94531,0.78125 1.83594,0.761719 3.18359,2.128907 1.36719,1.347656 2.14844,3.222656 0.80078,1.855469 0.80078,4.023437 0,2.324219 -0.78125,4.355469 -0.76172,2.0312502 -2.1289,3.5351565 -1.34766,1.5039062 -3.20313,2.3828125 -1.83594,0.859375 -3.96484,0.859375 -2.10938,0 -3.94532,-0.7421875 -1.8164,-0.7617188 -3.18359,-2.109375 -1.34766,-1.3476563 -2.12891,-3.2031255 -0.78125,-1.875 -0.78125,-4.101562 0,-2.363281 0.76172,-4.394531 0.78125,-2.050782 2.12891,-3.535157 1.34766,-1.503906 3.18359,-2.34375 1.83594,-0.859375 3.96485,-0.859375 z"
           style="font-style:normal;font-variant:normal;font-weight:normal;font-stretch:normal;font-family:Lora;-inkscape-font-specification:Lora"
           id="path4671" />
      </g>
    </g>
  </g>
</svg>
